<svg xmlns="http://www.w3.org/2000/svg" xmlns:xlink="http://www.w3.org/1999/xlink" version="1.1"
     data-diagram-type="SEQUENCE" style="width:1959px;height:1586px;background:#1A1A2E;" width="1959.375px"
     height="1586.458px" viewBox="0 0 1959 1586" zoomAndPan="magnify" preserveAspectRatio="none"
     contentStyleType="text/css"><?plantuml 1.2026.7beta8?>
    <defs/>
    <g font-family="sans-serif" lengthAdjust="spacing">
        <rect x="0" y="0" width="1959.375" height="1586.458" fill="#1A1A2E" style="stroke:none;"/>
        <rect x="498.448" y="479.053" width="560.175" height="260.091" fill="#555"
              style="stroke:#555;stroke-width:1.042;" rx="4.167" ry="4.167"/>
        <g>
            <title>............</title>
            <rect x="61.131" y="93.717" width="8.333" height="1398.25" fill="#000" fill-opacity="0"/>
            <line x1="64.777" y1="93.717" x2="64.777" y2="1491.968"
                  style="stroke:#666;stroke-width:1.042;stroke-dasharray:5.208,5.208;"/>
        </g>
        <g>
            <title>FastAPI</title>
            <rect x="321.301" y="93.717" width="8.333" height="1398.25" fill="#000" fill-opacity="0"/>
            <line x1="324.947" y1="93.717" x2="324.947" y2="1491.968"
                  style="stroke:#666;stroke-width:1.042;stroke-dasharray:5.208,5.208;"/>
        </g>
        <g>
            <title></title>
            <rect x="319.739" y="167.782" width="10.417" height="131.055" fill="#2A2A3E"
                  style="stroke:#55B2DE;stroke-width:1.042;"/>
        </g>
        <g>
            <title></title>
            <rect x="319.739" y="1429.533" width="10.417" height="43.685" fill="#2A2A3E"
                  style="stroke:#55B2DE;stroke-width:1.042;"/>
        </g>
        <g>
            <title>PostgreSQL</title>
            <rect x="516.677" y="93.717" width="8.333" height="1398.25" fill="#000" fill-opacity="0"/>
            <line x1="520.323" y1="93.717" x2="520.323" y2="1491.968"
                  style="stroke:#666;stroke-width:1.042;stroke-dasharray:5.208,5.208;"/>
        </g>
        <g>
            <title></title>
            <rect x="515.114" y="211.466" width="10.417" height="13.542" fill="#2A2A3E"
                  style="stroke:#55B2DE;stroke-width:1.042;"/>
        </g>
        <g>
            <title></title>
            <rect x="515.114" y="541.455" width="10.417" height="13.542" fill="#2A2A3E"
                  style="stroke:#55B2DE;stroke-width:1.042;"/>
        </g>
        <g>
            <title></title>
            <rect x="515.114" y="618.441" width="10.417" height="13.542" fill="#2A2A3E"
                  style="stroke:#55B2DE;stroke-width:1.042;"/>
        </g>
        <g>
            <title></title>
            <rect x="515.114" y="730.811" width="10.417" height="13.542" fill="#2A2A3E"
                  style="stroke:#55B2DE;stroke-width:1.042;"/>
        </g>
        <g>
            <title></title>
            <rect x="515.114" y="984.888" width="10.417" height="13.542" fill="#2A2A3E"
                  style="stroke:#55B2DE;stroke-width:1.042;"/>
        </g>
        <g>
            <title></title>
            <rect x="515.114" y="1355.469" width="10.417" height="13.542" fill="#2A2A3E"
                  style="stroke:#55B2DE;stroke-width:1.042;"/>
        </g>
        <g>
            <title>RabbitMQ</title>
            <rect x="718.75" y="93.717" width="8.333" height="1398.25" fill="#000" fill-opacity="0"/>
            <line x1="722.396" y1="93.717" x2="722.396" y2="1491.968"
                  style="stroke:#666;stroke-width:1.042;stroke-dasharray:5.208,5.208;"/>
        </g>
        <g>
            <title></title>
            <rect x="717.188" y="255.151" width="10.417" height="13.542" fill="#2A2A3E"
                  style="stroke:#55B2DE;stroke-width:1.042;"/>
        </g>
        <g>
            <title>Celery Worker</title>
            <rect x="967.324" y="93.717" width="8.333" height="1398.25" fill="#000" fill-opacity="0"/>
            <line x1="970.97" y1="93.717" x2="970.97" y2="1491.968"
                  style="stroke:#666;stroke-width:1.042;stroke-dasharray:5.208,5.208;"/>
        </g>
        <g>
            <title></title>
            <rect x="965.761" y="408.285" width="10.417" height="210.156" fill="#2A2A3E"
                  style="stroke:#55B2DE;stroke-width:1.042;"/>
        </g>
        <g>
            <title></title>
            <rect x="965.761" y="854.842" width="10.417" height="173.73" fill="#2A2A3E"
                  style="stroke:#55B2DE;stroke-width:1.042;"/>
        </g>
        <g>
            <title>ClamAV</title>
            <rect x="1216.709" y="93.717" width="8.333" height="1398.25" fill="#000" fill-opacity="0"/>
            <line x1="1220.355" y1="93.717" x2="1220.355" y2="1491.968"
                  style="stroke:#666;stroke-width:1.042;stroke-dasharray:5.208,5.208;"/>
        </g>
        <g>
            <title></title>
            <rect x="1215.147" y="437.419" width="10.417" height="29.134" fill="#2A2A3E"
                  style="stroke:#55B2DE;stroke-width:1.042;"/>
        </g>
        <g>
            <title>MongoDB</title>
            <rect x="1406.765" y="93.717" width="8.333" height="1398.25" fill="#000" fill-opacity="0"/>
            <line x1="1410.411" y1="93.717" x2="1410.411" y2="1491.968"
                  style="stroke:#666;stroke-width:1.042;stroke-dasharray:5.208,5.208;"/>
        </g>
        <g>
            <title></title>
            <rect x="1405.202" y="941.203" width="10.417" height="13.542" fill="#2A2A3E"
                  style="stroke:#55B2DE;stroke-width:1.042;"/>
        </g>
        <g>
            <title></title>
            <rect x="1405.202" y="1167.155" width="10.417" height="13.542" fill="#2A2A3E"
                  style="stroke:#55B2DE;stroke-width:1.042;"/>
        </g>
        <g>
            <title></title>
            <rect x="1405.202" y="1311.784" width="10.417" height="13.542" fill="#2A2A3E"
                  style="stroke:#55B2DE;stroke-width:1.042;"/>
        </g>
        <g>
            <title>FastStream</title>
            <rect x="1641.467" y="93.717" width="8.333" height="1398.25" fill="#000" fill-opacity="0"/>
            <line x1="1645.113" y1="93.717" x2="1645.113" y2="1491.968"
                  style="stroke:#666;stroke-width:1.042;stroke-dasharray:5.208,5.208;"/>
        </g>
        <g>
            <title></title>
            <rect x="1639.905" y="1138.021" width="10.417" height="217.448" fill="#2A2A3E"
                  style="stroke:#55B2DE;stroke-width:1.042;"/>
        </g>
        <g>
            <title>LLM</title>
            <rect x="1865.019" y="93.717" width="8.333" height="1398.25" fill="#000" fill-opacity="0"/>
            <line x1="1868.665" y1="93.717" x2="1868.665" y2="1491.968"
                  style="stroke:#666;stroke-width:1.042;stroke-dasharray:5.208,5.208;"/>
        </g>
        <g>
            <title></title>
            <rect x="1863.456" y="1253.516" width="10.417" height="29.134" fill="#2A2A3E"
                  style="stroke:#55B2DE;stroke-width:1.042;"/>
        </g>
        <text x="15.625" y="90.769" fill="#ADAFAE" font-size="12.5" textLength="92.053" font-family="'Verdana'">
            Пользователь
        </text>
        <ellipse cx="64.777" cy="25" rx="8.333" ry="8.333" fill="#6272A4" style="stroke:#55B2DE;stroke-width:1.042;"/>
        <path d="M64.777,33.333 L64.777,61.458 M51.235,41.667 L78.318,41.667 M64.777,61.458 L51.235,77.083 M64.777,61.458 L78.318,77.083"
              style="stroke:#55B2DE;stroke-width:1.042;" fill="none"/>
        <rect x="281.094" y="41.667" width="87.705" height="45.801" fill="#009688"
              style="stroke:#55B2DE;stroke-width:2.083;" rx="4.167" ry="4.167"/>
        <text x="301.928" y="68.894" fill="#FFF" font-size="12.5" textLength="46.039" font-family="'Verdana'">FastAPI
        </text>
        <rect x="463.439" y="41.667" width="113.767" height="45.801" fill="#336791"
              style="stroke:#55B2DE;stroke-width:2.083;" rx="4.167" ry="4.167"/>
        <text x="484.272" y="68.894" fill="#FFF" font-size="12.5" textLength="72.101" font-family="'Verdana'">
            PostgreSQL
        </text>
        <rect x="670.956" y="41.667" width="102.879" height="45.801" fill="#F60"
              style="stroke:#55B2DE;stroke-width:2.083;" rx="4.167" ry="4.167"/>
        <text x="691.79" y="68.894" fill="#FFF" font-size="12.5" textLength="61.212" font-family="'Verdana'">RabbitMQ
        </text>
        <rect x="905.483" y="41.667" width="130.973" height="45.801" fill="#37814A"
              style="stroke:#55B2DE;stroke-width:2.083;" rx="4.167" ry="4.167"/>
        <text x="926.316" y="68.894" fill="#FFF" font-size="12.5" textLength="89.307" font-family="'Verdana'">Celery
            Worker
        </text>
        <rect x="1174.952" y="41.667" width="90.806" height="45.801" fill="#B91C1C"
              style="stroke:#55B2DE;stroke-width:2.083;" rx="4.167" ry="4.167"/>
        <text x="1195.786" y="68.894" fill="#FFF" font-size="12.5" textLength="49.139" font-family="'Verdana'">ClamAV
        </text>
        <rect x="1359.508" y="41.667" width="101.805" height="45.801" fill="#47A248"
              style="stroke:#55B2DE;stroke-width:2.083;" rx="4.167" ry="4.167"/>
        <text x="1380.342" y="68.894" fill="#FFF" font-size="12.5" textLength="60.138" font-family="'Verdana'">MongoDB
        </text>
        <rect x="1588.397" y="41.667" width="113.432" height="45.801" fill="#6B46C1"
              style="stroke:#55B2DE;stroke-width:2.083;" rx="4.167" ry="4.167"/>
        <text x="1609.231" y="68.894" fill="#FFF" font-size="12.5" textLength="71.765" font-family="'Verdana'">
            FastStream
        </text>
        <rect x="1835.475" y="41.667" width="66.38" height="45.801" fill="#44475A"
              style="stroke:#55B2DE;stroke-width:2.083;" rx="4.167" ry="4.167"/>
        <text x="1856.308" y="68.894" fill="#FFF" font-size="12.5" textLength="24.713" font-family="'Verdana'">LLM
        </text>
        <text x="15.625" y="1503.571" fill="#ADAFAE" font-size="12.5" textLength="92.053" font-family="'Verdana'">
            Пользователь
        </text>
        <ellipse cx="64.777" cy="1515.894" rx="8.333" ry="8.333" fill="#6272A4"
                 style="stroke:#55B2DE;stroke-width:1.042;"/>
        <path d="M64.777,1524.227 L64.777,1552.352 M51.235,1532.56 L78.318,1532.56 M64.777,1552.352 L51.235,1567.977 M64.777,1552.352 L78.318,1567.977"
              style="stroke:#55B2DE;stroke-width:1.042;" fill="none"/>
        <rect x="281.094" y="1497.176" width="87.705" height="45.801" fill="#009688"
              style="stroke:#55B2DE;stroke-width:2.083;" rx="4.167" ry="4.167"/>
        <text x="301.928" y="1524.404" fill="#FFF" font-size="12.5" textLength="46.039" font-family="'Verdana'">
            FastAPI
        </text>
        <rect x="463.439" y="1497.176" width="113.767" height="45.801" fill="#336791"
              style="stroke:#55B2DE;stroke-width:2.083;" rx="4.167" ry="4.167"/>
        <text x="484.272" y="1524.404" fill="#FFF" font-size="12.5" textLength="72.101" font-family="'Verdana'">
            PostgreSQL
        </text>
        <rect x="670.956" y="1497.176" width="102.879" height="45.801" fill="#F60"
              style="stroke:#55B2DE;stroke-width:2.083;" rx="4.167" ry="4.167"/>
        <text x="691.79" y="1524.404" fill="#FFF" font-size="12.5" textLength="61.212" font-family="'Verdana'">
            RabbitMQ
        </text>
        <rect x="905.483" y="1497.176" width="130.973" height="45.801" fill="#37814A"
              style="stroke:#55B2DE;stroke-width:2.083;" rx="4.167" ry="4.167"/>
        <text x="926.316" y="1524.404" fill="#FFF" font-size="12.5" textLength="89.307" font-family="'Verdana'">Celery
            Worker
        </text>
        <rect x="1174.952" y="1497.176" width="90.806" height="45.801" fill="#B91C1C"
              style="stroke:#55B2DE;stroke-width:2.083;" rx="4.167" ry="4.167"/>
        <text x="1195.786" y="1524.404" fill="#FFF" font-size="12.5" textLength="49.139" font-family="'Verdana'">
            ClamAV
        </text>
        <rect x="1359.508" y="1497.176" width="101.805" height="45.801" fill="#47A248"
              style="stroke:#55B2DE;stroke-width:2.083;" rx="4.167" ry="4.167"/>
        <text x="1380.342" y="1524.404" fill="#FFF" font-size="12.5" textLength="60.138" font-family="'Verdana'">
            MongoDB
        </text>
        <rect x="1588.397" y="1497.176" width="113.432" height="45.801" fill="#6B46C1"
              style="stroke:#55B2DE;stroke-width:2.083;" rx="4.167" ry="4.167"/>
        <text x="1609.231" y="1524.404" fill="#FFF" font-size="12.5" textLength="71.765" font-family="'Verdana'">
            FastStream
        </text>
        <rect x="1835.475" y="1497.176" width="66.38" height="45.801" fill="#44475A"
              style="stroke:#55B2DE;stroke-width:2.083;" rx="4.167" ry="4.167"/>
        <text x="1856.308" y="1524.404" fill="#FFF" font-size="12.5" textLength="24.713" font-family="'Verdana'">LLM
        </text>
        <rect x="15.625" y="123.474" width="1927.896" height="3.125" fill="#44475A"
              style="stroke:#44475A;stroke-width:1.042;" rx="4.167" ry="4.167"/>
        <line x1="15.625" y1="123.474" x2="1943.521" y2="123.474" style="stroke:#6272A4;stroke-width:1.042;"/>
        <line x1="15.625" y1="126.599" x2="1943.521" y2="126.599" style="stroke:#6272A4;stroke-width:1.042;"/>
        <rect x="882.485" y="112.467" width="194.176" height="24.097" fill="#44475A"
              style="stroke:#6272A4;stroke-width:2.083;" rx="4.167" ry="4.167"/>
        <text x="888.735" y="129.204" fill="#F8F8F2" font-size="13.542" textLength="174.878" font-weight="700"
              font-family="'Verdana'">Загрузка и валидация
        </text>
        <polygon points="307.239,163.615,317.655,167.782,307.239,171.948,311.405,167.782" fill="#F8F8F2"
                 style="stroke:#F8F8F2;stroke-width:1.042;stroke-linejoin:miter;stroke-miterlimit:10;"/>
        <line x1="64.777" y1="167.782" x2="313.489" y2="167.782" style="stroke:#F8F8F2;stroke-width:2.083;"/>
        <text x="72.068" y="162.75" fill="#F8F8F2" font-size="12.5" textLength="229.962" font-family="'Verdana'">POST
            /documents (Загрузка файла)
        </text>
        <polygon points="502.614,207.3,513.031,211.466,502.614,215.633,506.781,211.466" fill="#F8F8F2"
                 style="stroke:#F8F8F2;stroke-width:1.042;stroke-linejoin:miter;stroke-miterlimit:10;"/>
        <line x1="330.155" y1="211.466" x2="508.864" y2="211.466" style="stroke:#F8F8F2;stroke-width:2.083;"/>
        <text x="337.447" y="191.884" fill="#F8F8F2" font-size="12.5" textLength="165.167" font-family="'Verdana'">
            Сохранение метаданных
        </text>
        <text x="337.447" y="206.435" fill="#F8F8F2" font-size="12.5" textLength="109.192" font-family="'Verdana'">
            (статус: created)
        </text>
        <polygon points="704.688,250.985,715.104,255.151,704.688,259.318,708.854,255.151" fill="#F8F8F2"
                 style="stroke:#F8F8F2;stroke-width:1.042;stroke-linejoin:miter;stroke-miterlimit:10;"/>
        <line x1="330.155" y1="255.151" x2="710.938" y2="255.151" style="stroke:#F8F8F2;stroke-width:2.083;"/>
        <text x="337.447" y="235.569" fill="#F8F8F2" font-size="12.5" textLength="130.072" font-family="'Verdana'">
            Публикация задачи
        </text>
        <text x="337.447" y="250.12" fill="#F8F8F2" font-size="12.5" textLength="112.781" font-family="'Verdana'">на
            сканирование
        </text>
        <polygon points="76.235,294.67,65.818,298.836,76.235,303.003,72.068,298.836" fill="#F8F8F2"
                 style="stroke:#F8F8F2;stroke-width:1.042;stroke-linejoin:miter;stroke-miterlimit:10;"/>
        <line x1="69.985" y1="298.836" x2="318.697" y2="298.836"
              style="stroke:#F8F8F2;stroke-width:2.083;stroke-dasharray:2.083,2.083;"/>
        <text x="82.485" y="279.254" fill="#F8F8F2" font-size="12.5" textLength="77.576" font-family="'Verdana'">201
            Created
        </text>
        <text x="82.485" y="293.805" fill="#F8F8F2" font-size="12.5" textLength="135.107" font-family="'Verdana'">
            (DocumentResponse)
        </text>
        <rect x="15.625" y="328.593" width="1927.896" height="3.125" fill="#44475A"
              style="stroke:#44475A;stroke-width:1.042;" rx="4.167" ry="4.167"/>
        <line x1="15.625" y1="328.593" x2="1943.521" y2="328.593" style="stroke:#6272A4;stroke-width:1.042;"/>
        <line x1="15.625" y1="331.718" x2="1943.521" y2="331.718" style="stroke:#6272A4;stroke-width:1.042;"/>
        <rect x="824.404" y="317.586" width="310.338" height="24.097" fill="#44475A"
              style="stroke:#6272A4;stroke-width:2.083;" rx="4.167" ry="4.167"/>
        <text x="830.654" y="334.323" fill="#F8F8F2" font-size="13.542" textLength="291.04" font-weight="700"
              font-family="'Verdana'">Асинхронно: Антивирусная проверка
        </text>
        <path d="M880.534,361.475 L880.534,377.1 A4.167,4.167 0 0 0 884.701,381.266 L1056.576,381.266 A4.167,4.167 0 0 0 1060.742,377.1 L1060.742,367.725 L1050.326,357.308 L884.701,357.308 A4.167,4.167 0 0 0 880.534,361.475"
              style="stroke:#AD5CD6;stroke-width:1.042;" fill="#93C"/>
        <path d="M1050.326,357.308 L1050.326,365.641 A2.083,2.083 0 0 0 1052.409,367.725 L1060.742,367.725 L1050.326,357.308"
              style="stroke:#AD5CD6;stroke-width:1.042;" fill="#93C"/>
        <text x="886.784" y="374.119" fill="#FFF" font-size="12.5" textLength="158.997" font-family="'Verdana'">
            Асинхронная обработка
        </text>
        <polygon points="953.261,404.118,963.678,408.285,953.261,412.451,957.428,408.285" fill="#F8F8F2"
                 style="stroke:#F8F8F2;stroke-width:1.042;stroke-linejoin:miter;stroke-miterlimit:10;"/>
        <line x1="722.396" y1="408.285" x2="959.511" y2="408.285" style="stroke:#F8F8F2;stroke-width:2.083;"/>
        <text x="729.688" y="403.253" fill="#F8F8F2" font-size="12.5" textLength="218.365" font-family="'Verdana'">
            Получение задачи сканирования
        </text>
        <polygon points="1202.647,433.252,1213.064,437.419,1202.647,441.585,1206.814,437.419" fill="#F8F8F2"
                 style="stroke:#F8F8F2;stroke-width:1.042;stroke-linejoin:miter;stroke-miterlimit:10;"/>
        <line x1="976.178" y1="437.419" x2="1208.897" y2="437.419" style="stroke:#F8F8F2;stroke-width:2.083;"/>
        <text x="983.47" y="432.387" fill="#F8F8F2" font-size="12.5" textLength="219.177" font-family="'Verdana'">
            Сканирование файла (INSTREAM)
        </text>
        <polygon points="987.636,462.386,977.22,466.553,987.636,470.719,983.47,466.553" fill="#F8F8F2"
                 style="stroke:#F8F8F2;stroke-width:1.042;stroke-linejoin:miter;stroke-miterlimit:10;"/>
        <line x1="981.386" y1="466.553" x2="1214.105" y2="466.553"
              style="stroke:#F8F8F2;stroke-width:2.083;stroke-dasharray:2.083,2.083;"/>
        <text x="993.886" y="461.521" fill="#F8F8F2" font-size="12.5" textLength="133.246" font-family="'Verdana'">
            Результат проверки
        </text>
        <path d="M502.614,479.053 L564.018,479.053 L564.018,485.27 L553.601,495.687 L498.448,495.687 L498.448,483.219 A4.167,4.167 0 0 1 502.614,479.053"
              fill="#555"/>
        <rect x="498.448" y="479.053" width="560.175" height="260.091" fill="none"
              style="stroke:#2A9FD6;stroke-width:1.042;" rx="4.167" ry="4.167"/>
        <text x="514.073" y="491.697" fill="#93C" font-size="12.5" textLength="18.695" font-weight="700"
              font-family="'Verdana'">alt
        </text>
        <text x="579.643" y="492.739" fill="#ADAFAE" font-size="12.5" textLength="86.517" font-weight="700"
              font-family="'Verdana'">[Файл чист]
        </text>
        <line x1="498.448" y1="561.247" x2="1058.622" y2="561.247"
              style="stroke:#2A9FD6;stroke-width:1.042;stroke-dasharray:2.083,2.083;"/>
        <text x="503.656" y="574.933" fill="#ADAFAE" font-size="12.5" textLength="117.157" font-weight="700"
              font-family="'Verdana'">[Файл заражён]
        </text>
        <line x1="498.448" y1="673.617" x2="1058.622" y2="673.617"
              style="stroke:#2A9FD6;stroke-width:1.042;stroke-dasharray:2.083,2.083;"/>
        <text x="503.656" y="687.303" fill="#ADAFAE" font-size="12.5" textLength="175.616" font-weight="700"
              font-family="'Verdana'">[Антивирус недоступен]
        </text>
        <polygon points="536.989,537.288,526.573,541.455,536.989,545.622,532.823,541.455" fill="#F8F8F2"
                 style="stroke:#F8F8F2;stroke-width:1.042;stroke-linejoin:miter;stroke-miterlimit:10;"/>
        <line x1="530.739" y1="541.455" x2="964.72" y2="541.455" style="stroke:#F8F8F2;stroke-width:2.083;"/>
        <text x="543.239" y="521.873" fill="#F8F8F2" font-size="12.5" textLength="135.4" font-family="'Verdana'">
            Обновление статуса
        </text>
        <text x="543.239" y="536.424" fill="#F8F8F2" font-size="12.5" textLength="125.195" font-family="'Verdana'">
            (статус: extracting)
        </text>
        <polygon points="536.989,614.274,526.573,618.441,536.989,622.607,532.823,618.441" fill="#F8F8F2"
                 style="stroke:#F8F8F2;stroke-width:1.042;stroke-linejoin:miter;stroke-miterlimit:10;"/>
        <line x1="530.739" y1="618.441" x2="964.72" y2="618.441" style="stroke:#F8F8F2;stroke-width:2.083;"/>
        <text x="543.239" y="598.859" fill="#F8F8F2" font-size="12.5" textLength="135.4" font-family="'Verdana'">
            Обновление статуса
        </text>
        <text x="543.239" y="613.409" fill="#F8F8F2" font-size="12.5" textLength="112.189" font-family="'Verdana'">
            (статус: infected)
        </text>
        <path d="M905.192,636.149 L905.192,651.774 A4.167,4.167 0 0 0 909.359,655.941 L1032.275,655.941 A4.167,4.167 0 0 0 1036.442,651.774 L1036.442,642.399 L1026.025,631.982 L909.359,631.982 A4.167,4.167 0 0 0 905.192,636.149"
              style="stroke:#AD5CD6;stroke-width:1.042;" fill="#93C"/>
        <path d="M1026.025,631.982 L1026.025,640.316 A2.083,2.083 0 0 0 1028.109,642.399 L1036.442,642.399 L1026.025,631.982"
              style="stroke:#AD5CD6;stroke-width:1.042;" fill="#93C"/>
        <text x="911.442" y="648.794" fill="#FFF" font-size="12.5" textLength="109.68" font-family="'Verdana'">Удаление
            файла
        </text>
        <polygon points="536.989,726.644,526.573,730.811,536.989,734.977,532.823,730.811" fill="#F8F8F2"
                 style="stroke:#F8F8F2;stroke-width:1.042;stroke-linejoin:miter;stroke-miterlimit:10;"/>
        <line x1="530.739" y1="730.811" x2="969.928" y2="730.811" style="stroke:#F8F8F2;stroke-width:2.083;"/>
        <text x="543.239" y="711.228" fill="#F8F8F2" font-size="12.5" textLength="135.4" font-family="'Verdana'">
            Обновление статуса
        </text>
        <text x="543.239" y="725.779" fill="#F8F8F2" font-size="12.5" textLength="171.985" font-family="'Verdana'">
            (статус: extracting / failed)
        </text>
        <rect x="15.625" y="775.151" width="1927.896" height="3.125" fill="#44475A"
              style="stroke:#44475A;stroke-width:1.042;" rx="4.167" ry="4.167"/>
        <line x1="15.625" y1="775.151" x2="1943.521" y2="775.151" style="stroke:#6272A4;stroke-width:1.042;"/>
        <line x1="15.625" y1="778.276" x2="1943.521" y2="778.276" style="stroke:#6272A4;stroke-width:1.042;"/>
        <rect x="843.642" y="764.144" width="271.862" height="24.097" fill="#44475A"
              style="stroke:#6272A4;stroke-width:2.083;" rx="4.167" ry="4.167"/>
        <text x="849.892" y="780.88" fill="#F8F8F2" font-size="13.542" textLength="252.564" font-weight="700"
              font-family="'Verdana'">Асинхронно: Извлечение текста
        </text>
        <path d="M880.534,808.032 L880.534,823.657 A4.167,4.167 0 0 0 884.701,827.824 L1056.576,827.824 A4.167,4.167 0 0 0 1060.742,823.657 L1060.742,814.282 L1050.326,803.866 L884.701,803.866 A4.167,4.167 0 0 0 880.534,808.032"
              style="stroke:#AD5CD6;stroke-width:1.042;" fill="#93C"/>
        <path d="M1050.326,803.866 L1050.326,812.199 A2.083,2.083 0 0 0 1052.409,814.282 L1060.742,814.282 L1050.326,803.866"
              style="stroke:#AD5CD6;stroke-width:1.042;" fill="#93C"/>
        <text x="886.784" y="820.677" fill="#FFF" font-size="12.5" textLength="158.997" font-family="'Verdana'">
            Асинхронная обработка
        </text>
        <polygon points="953.261,850.675,963.678,854.842,953.261,859.009,957.428,854.842" fill="#F8F8F2"
                 style="stroke:#F8F8F2;stroke-width:1.042;stroke-linejoin:miter;stroke-miterlimit:10;"/>
        <line x1="722.396" y1="854.842" x2="959.511" y2="854.842" style="stroke:#F8F8F2;stroke-width:2.083;"/>
        <text x="729.688" y="849.811" fill="#F8F8F2" font-size="12.5" textLength="202.271" font-family="'Verdana'">
            Получение задачи извлечения
        </text>
        <line x1="976.178" y1="898.527" x2="1019.928" y2="898.527" style="stroke:#F8F8F2;stroke-width:2.083;"/>
        <line x1="1019.928" y1="898.527" x2="1019.928" y2="912.069" style="stroke:#F8F8F2;stroke-width:2.083;"/>
        <line x1="977.22" y1="912.069" x2="1019.928" y2="912.069" style="stroke:#F8F8F2;stroke-width:2.083;"/>
        <polygon points="987.636,907.902,977.22,912.069,987.636,916.235,983.47,912.069" fill="#F8F8F2"
                 style="stroke:#F8F8F2;stroke-width:1.042;stroke-linejoin:miter;stroke-miterlimit:10;"/>
        <text x="983.47" y="878.945" fill="#F8F8F2" font-size="12.5" textLength="126.416" font-family="'Verdana'">
            Извлечение текста
        </text>
        <text x="983.47" y="893.496" fill="#F8F8F2" font-size="12.5" textLength="114.49" font-family="'Verdana'">
            (txt/docx/xlsx/pdf)
        </text>
        <polygon points="1392.702,937.036,1403.119,941.203,1392.702,945.369,1396.869,941.203" fill="#F8F8F2"
                 style="stroke:#F8F8F2;stroke-width:1.042;stroke-linejoin:miter;stroke-miterlimit:10;"/>
        <line x1="976.178" y1="941.203" x2="1398.952" y2="941.203" style="stroke:#F8F8F2;stroke-width:2.083;"/>
        <text x="983.47" y="936.171" fill="#F8F8F2" font-size="12.5" textLength="137.354" font-family="'Verdana'">
            Сохранение raw_text
        </text>
        <polygon points="536.989,980.721,526.573,984.888,536.989,989.054,532.823,984.888" fill="#F8F8F2"
                 style="stroke:#F8F8F2;stroke-width:1.042;stroke-linejoin:miter;stroke-miterlimit:10;"/>
        <line x1="530.739" y1="984.888" x2="964.72" y2="984.888" style="stroke:#F8F8F2;stroke-width:2.083;"/>
        <text x="543.239" y="965.306" fill="#F8F8F2" font-size="12.5" textLength="135.4" font-family="'Verdana'">
            Обновление статуса
        </text>
        <text x="543.239" y="979.856" fill="#F8F8F2" font-size="12.5" textLength="121.49" font-family="'Verdana'">
            (статус: extracted)
        </text>
        <polygon points="733.854,1024.406,723.438,1028.573,733.854,1032.739,729.688,1028.573" fill="#F8F8F2"
                 style="stroke:#F8F8F2;stroke-width:1.042;stroke-linejoin:miter;stroke-miterlimit:10;"/>
        <line x1="727.604" y1="1028.573" x2="964.72" y2="1028.573" style="stroke:#F8F8F2;stroke-width:2.083;"/>
        <text x="740.104" y="1008.99" fill="#F8F8F2" font-size="12.5" textLength="138.977" font-family="'Verdana'">
            Публикация события
        </text>
        <text x="740.104" y="1023.541" fill="#F8F8F2" font-size="12.5" textLength="174.103" font-family="'Verdana'">
            "documents.text.extracted"
        </text>
        <rect x="15.625" y="1058.329" width="1927.896" height="3.125" fill="#44475A"
              style="stroke:#44475A;stroke-width:1.042;" rx="4.167" ry="4.167"/>
        <line x1="15.625" y1="1058.329" x2="1943.521" y2="1058.329" style="stroke:#6272A4;stroke-width:1.042;"/>
        <line x1="15.625" y1="1061.454" x2="1943.521" y2="1061.454" style="stroke:#6272A4;stroke-width:1.042;"/>
        <rect x="847.49" y="1047.323" width="264.165" height="24.097" fill="#44475A"
              style="stroke:#6272A4;stroke-width:2.083;" rx="4.167" ry="4.167"/>
        <text x="853.74" y="1064.059" fill="#F8F8F2" font-size="13.542" textLength="244.867" font-weight="700"
              font-family="'Verdana'">Асинхронно: Анализ через LLM
        </text>
        <path d="M1554.677,1091.211 L1554.677,1106.836 A4.167,4.167 0 0 0 1558.844,1111.003 L1730.719,1111.003 A4.167,4.167 0 0 0 1734.886,1106.836 L1734.886,1097.461 L1724.469,1087.044 L1558.844,1087.044 A4.167,4.167 0 0 0 1554.677,1091.211"
              style="stroke:#AD5CD6;stroke-width:1.042;" fill="#93C"/>
        <path d="M1724.469,1087.044 L1724.469,1095.378 A2.083,2.083 0 0 0 1726.552,1097.461 L1734.886,1097.461 L1724.469,1087.044"
              style="stroke:#AD5CD6;stroke-width:1.042;" fill="#93C"/>
        <text x="1560.927" y="1103.855" fill="#FFF" font-size="12.5" textLength="158.997" font-family="'Verdana'">
            Асинхронная обработка
        </text>
        <polygon points="1627.405,1133.854,1637.821,1138.021,1627.405,1142.188,1631.571,1138.021" fill="#F8F8F2"
                 style="stroke:#F8F8F2;stroke-width:1.042;stroke-linejoin:miter;stroke-miterlimit:10;"/>
        <line x1="722.396" y1="1138.021" x2="1633.655" y2="1138.021" style="stroke:#F8F8F2;stroke-width:2.083;"/>
        <text x="729.688" y="1132.99" fill="#F8F8F2" font-size="12.5" textLength="130.493" font-family="'Verdana'">
            Получение события
        </text>
        <polygon points="1427.077,1162.988,1416.661,1167.155,1427.077,1171.322,1422.911,1167.155" fill="#F8F8F2"
                 style="stroke:#F8F8F2;stroke-width:1.042;stroke-linejoin:miter;stroke-miterlimit:10;"/>
        <line x1="1420.827" y1="1167.155" x2="1638.863" y2="1167.155" style="stroke:#F8F8F2;stroke-width:2.083;"/>
        <text x="1433.327" y="1162.124" fill="#F8F8F2" font-size="12.5" textLength="129.633" font-family="'Verdana'">
            Получение raw_text
        </text>
        <line x1="1650.321" y1="1196.289" x2="1694.071" y2="1196.289" style="stroke:#F8F8F2;stroke-width:2.083;"/>
        <line x1="1694.071" y1="1196.289" x2="1694.071" y2="1209.831" style="stroke:#F8F8F2;stroke-width:2.083;"/>
        <line x1="1651.363" y1="1209.831" x2="1694.071" y2="1209.831" style="stroke:#F8F8F2;stroke-width:2.083;"/>
        <polygon points="1661.78,1205.664,1651.363,1209.831,1661.78,1213.997,1657.613,1209.831" fill="#F8F8F2"
                 style="stroke:#F8F8F2;stroke-width:1.042;stroke-linejoin:miter;stroke-miterlimit:10;"/>
        <text x="1657.613" y="1191.258" fill="#F8F8F2" font-size="12.5" textLength="203.76" font-family="'Verdana'">
            Получение активного промпта
        </text>
        <polygon points="1850.956,1249.349,1861.373,1253.516,1850.956,1257.682,1855.123,1253.516" fill="#F8F8F2"
                 style="stroke:#F8F8F2;stroke-width:1.042;stroke-linejoin:miter;stroke-miterlimit:10;"/>
        <line x1="1650.321" y1="1253.516" x2="1857.206" y2="1253.516" style="stroke:#F8F8F2;stroke-width:2.083;"/>
        <text x="1657.613" y="1233.934" fill="#F8F8F2" font-size="12.5" textLength="95.453" font-family="'Verdana'">
            Анализ текста
        </text>
        <text x="1657.613" y="1248.484" fill="#F8F8F2" font-size="12.5" textLength="113.489" font-family="'Verdana'">
            (текст + промпт)
        </text>
        <polygon points="1661.78,1278.483,1651.363,1282.65,1661.78,1286.816,1657.613,1282.65" fill="#F8F8F2"
                 style="stroke:#F8F8F2;stroke-width:1.042;stroke-linejoin:miter;stroke-miterlimit:10;"/>
        <line x1="1655.53" y1="1282.65" x2="1862.415" y2="1282.65"
              style="stroke:#F8F8F2;stroke-width:2.083;stroke-dasharray:2.083,2.083;"/>
        <text x="1668.03" y="1277.618" fill="#F8F8F2" font-size="12.5" textLength="160.455" font-family="'Verdana'">
            JSON-результат анализа
        </text>
        <polygon points="1427.077,1307.617,1416.661,1311.784,1427.077,1315.951,1422.911,1311.784" fill="#F8F8F2"
                 style="stroke:#F8F8F2;stroke-width:1.042;stroke-linejoin:miter;stroke-miterlimit:10;"/>
        <line x1="1420.827" y1="1311.784" x2="1638.863" y2="1311.784" style="stroke:#F8F8F2;stroke-width:2.083;"/>
        <text x="1433.327" y="1306.753" fill="#F8F8F2" font-size="12.5" textLength="199.286" font-family="'Verdana'">
            Сохранение анализа и версии
        </text>
        <polygon points="536.989,1351.302,526.573,1355.469,536.989,1359.635,532.823,1355.469" fill="#F8F8F2"
                 style="stroke:#F8F8F2;stroke-width:1.042;stroke-linejoin:miter;stroke-miterlimit:10;"/>
        <line x1="530.739" y1="1355.469" x2="1638.863" y2="1355.469" style="stroke:#F8F8F2;stroke-width:2.083;"/>
        <text x="543.239" y="1335.887" fill="#F8F8F2" font-size="12.5" textLength="135.4" font-family="'Verdana'">
            Обновление статуса
        </text>
        <text x="543.239" y="1350.437" fill="#F8F8F2" font-size="12.5" textLength="110.199" font-family="'Verdana'">
            (статус: success)
        </text>
        <rect x="15.625" y="1385.225" width="1927.896" height="3.125" fill="#44475A"
              style="stroke:#44475A;stroke-width:1.042;" rx="4.167" ry="4.167"/>
        <line x1="15.625" y1="1385.225" x2="1943.521" y2="1385.225" style="stroke:#6272A4;stroke-width:1.042;"/>
        <line x1="15.625" y1="1388.35" x2="1943.521" y2="1388.35" style="stroke:#6272A4;stroke-width:1.042;"/>
        <rect x="880.607" y="1374.219" width="197.931" height="24.097" fill="#44475A"
              style="stroke:#6272A4;stroke-width:2.083;" rx="4.167" ry="4.167"/>
        <text x="886.857" y="1390.955" fill="#F8F8F2" font-size="13.542" textLength="178.634" font-weight="700"
              font-family="'Verdana'">Получение результата
        </text>
        <polygon points="307.239,1425.366,317.655,1429.533,307.239,1433.7,311.405,1429.533" fill="#F8F8F2"
                 style="stroke:#F8F8F2;stroke-width:1.042;stroke-linejoin:miter;stroke-miterlimit:10;"/>
        <line x1="64.777" y1="1429.533" x2="313.489" y2="1429.533" style="stroke:#F8F8F2;stroke-width:2.083;"/>
        <text x="72.068" y="1424.502" fill="#F8F8F2" font-size="12.5" textLength="134.509" font-family="'Verdana'">GET
            /documents/{id}
        </text>
        <polygon points="76.235,1469.051,65.818,1473.218,76.235,1477.384,72.068,1473.218" fill="#F8F8F2"
                 style="stroke:#F8F8F2;stroke-width:1.042;stroke-linejoin:miter;stroke-miterlimit:10;"/>
        <line x1="69.985" y1="1473.218" x2="318.697" y2="1473.218"
              style="stroke:#F8F8F2;stroke-width:2.083;stroke-dasharray:2.083,2.083;"/>
        <text x="82.485" y="1453.636" fill="#F8F8F2" font-size="12.5" textLength="125.354" font-family="'Verdana'">
            DocumentResponse
        </text>
        <text x="82.485" y="1468.186" fill="#F8F8F2" font-size="12.5" textLength="211.792" font-family="'Verdana'">
            (метаданные + текст + анализ)
        </text>
        <?plantuml-src lLVTJXj75BxVfpWrDw28-0V7DfQej3OOfG9YC7LlaAfbFPWLzYxTNS1f52b0QIzIYVIglMfQjGzWab1SY9rNc7sZdfbPTcUzYzD6g4PelJDdpldETxupC_xCtILT0lhJRSjkAywUOUvhjjQ5RKtVQzlMWTcgMXtBXgcicbLpIvA5iwkrh2F3RCEErd68DCENwPPj4XjAyWhopG4nTQBQjdMqkMleUoPn7CWbcDGrspLqOryptOfbjuWzsNp5sC5_amXR7_4Z_b4IpE6P0i1H-AQr4lxbRWThbkdUET4mlYMGPKE9GGly8y-E4vbJS-hS4bfKh5vaQJwVBpvI_OdOgXAkAeZ997p-S8XkpNAZo6grIgbGlPqPzny4PxD90Mx7HOGiZYmQXmQwZwQVA-RKl3HvPnpV82cKD2MYpIdF5KNJNRHAqTTqH6-y7-aLFj_GldT2Bzbx2ZG7ldH8268_r12aQfhZglN7t0gVC9N9p1TAfQXHtNBSjaqQwolShhuCKtDpXU9yDcgseMrl6-xgEZVQM5rdt1OAcKpKgaewn7uANrds7h6vgVYAFekbR5uTi-veNRKfu3LXgZAVhMQhKPDLosnRYnLkmxyZcqKrbo_5CssuDj6wt59yHL8g-K9rB96LbLLkWy-WCih20j2VQP--zLvufyZoDUq37G3ZcjxG0Ns7d7zF1zuvB2medF3PpncbPQW_QMn2kcNf1rrYkWvCn_nut-70t-YcFyFgQHngBc5h5LOIT5DVBWFzdOwyC-y5MWwnj4CCUGdqFRt4IlTPT1mQUY-ziorpsZjcWzw9T-eTbq77J5tIabpNbvKMaT_yE5Wq3FGQSLtmdAw3d10e3-BzG0TR9eP2qCTidW51K5np0bGO1jt9STWh3uIH645bo6MoK1Ne4FMYpz06SVOjqo4pycB61g_1Aumxm4pFU5JCcOuGyoiSES7nDmmDIvj1PBW_-E0kyScenkAOsB9W7MA5XFBAIKxvuX6zu8HV8FKdRBd2P8tmWuMYwqwHbg0a4bDtSEITXnm9JuhV0qmoJLxhH6ebeS3quxN6viQIkYfBfgbWbypA07z3O5TOKDmAX2R6AHb4M6xYXj9nWVufuW3BWga9jvyG8fVZhyZAaFkv2NANTKVxCI6IdckpK6Px1lt9-WE8wf7WoHc2O9JoElpb_KI7zmB5C7U8pfjYCX201BNymTjDYXLK9RhUhwr89gPGu7ty3gLrp53H3ypVFVCCQRo569sFvqdCrgJs-WLBm058GkSdpBM8_3-t5OwCuPdOKe7RZwM1JBezbstLlNIlu_JI-wsT6SaHFrxks8fjxUXh5vaFSN1hkRl4mBtLT_AM7eQvUrT7xwmMBvamlVCjCnKSKWzPAW-3G2abBkl9kx5_Abwn7OHjDBWByVCq8XHn27-2K8A5SQ54Sme94aiK_zoNYXbtyQzB6JgR00ZnN_kTp-hybevkj-3t-CIoIcwGeN7wel8CN-51n8qa1NIYCAfd9LnVD9wipOeoH0-3VXWBaKWPCYzniX8l8H4V_gK8QyvhElWF97vgFpW7keu_WIPrW_Jc2u7BDq4-COx4xXQvqIqloHUwz3EZzJpXtXPSSyOlDfX0_EA6iHz0jBmIh-DteNy0?>
    </g>
</svg>
